<svg width="32" height="24" viewBox="0 0 32 24" fill="none" xmlns="http://www.w3.org/2000/svg">
<g clip-path="url(#clip0_1261_1852)">
<path fill-rule="evenodd" clip-rule="evenodd" d="M0 2C0 0.89543 0.895431 0 2 0H30C31.1046 0 32 0.895431 32 2V7.70637C30.2 7.94514 28.8 9.77637 28.8 12C28.8 14.2236 30.2 16.0549 32 16.2936V22C32 23.1046 31.1046 24 30 24H2C0.895431 24 0 23.1046 0 22V16.2936C1.79998 16.0549 3.2 14.2236 3.2 12C3.2 9.77637 1.79998 7.94514 0 7.70637V2Z" fill="#FF762E"/>
<path d="M23.5 12C23.5 13.4834 23.0601 14.9334 22.236 16.1668C21.4119 17.4001 20.2406 18.3614 18.8701 18.9291C17.4997 19.4968 15.9917 19.6453 14.5368 19.3559C13.082 19.0665 11.7456 18.3522 10.6967 17.3033C9.64781 16.2544 8.9335 14.918 8.64411 13.4632C8.35472 12.0083 8.50325 10.5003 9.07091 9.12987C9.63856 7.75943 10.5999 6.58809 11.8332 5.76398C13.0666 4.93987 14.5166 4.5 16 4.5C18.1 4.5 20.1083 5.33333 21.6167 6.78333L23.5 8.66667M23.5 8.66667L23.5 4.5M23.5 8.66667H19.3333" stroke="white" stroke-width="2" stroke-linecap="round" stroke-linejoin="round"/>
</g>
<defs>
<clipPath id="clip0_1261_1852">
<rect width="32" height="24" fill="white"/>
</clipPath>
</defs>
</svg>
