<svg width="32" height="20" viewBox="0 0 32 20" fill="none" xmlns="http://www.w3.org/2000/svg">
<g clip-path="url(#clip0_1251_1806)">
<path fill-rule="evenodd" clip-rule="evenodd" d="M0 2C0 0.895431 0.895431 0 2 0H30C31.1046 0 32 0.895431 32 2V6.42197C30.2 6.62095 28.8 8.14698 28.8 10C28.8 11.853 30.2 13.3791 32 13.578V18C32 19.1046 31.1046 20 30 20H2C0.895431 20 0 19.1046 0 18V13.578C1.79998 13.3791 3.2 11.853 3.2 10C3.2 8.14698 1.79998 6.62095 0 6.42197V2ZM9.40001 2.72C9.40001 3.33856 8.90753 3.84 8.30001 3.84C7.6925 3.84 7.20001 3.33856 7.20001 2.72C7.20001 2.10144 7.6925 1.6 8.30001 1.6C8.90753 1.6 9.40001 2.10144 9.40001 2.72ZM8.29999 8.31998C8.9075 8.31998 9.39999 7.81854 9.39999 7.19998C9.39999 6.58142 8.9075 6.07998 8.29999 6.07998C7.69247 6.07998 7.19999 6.58142 7.19999 7.19998C7.19999 7.81854 7.69247 8.31998 8.29999 8.31998ZM9.39999 11.6801C9.39999 12.2986 8.9075 12.8001 8.29999 12.8001C7.69247 12.8001 7.19999 12.2986 7.19999 11.6801C7.19999 11.0615 7.69247 10.5601 8.29999 10.5601C8.9075 10.5601 9.39999 11.0615 9.39999 11.6801ZM8.29999 17.2797C8.9075 17.2797 9.39999 16.7783 9.39999 16.1597C9.39999 15.5412 8.9075 15.0397 8.29999 15.0397C7.69247 15.0397 7.19999 15.5412 7.19999 16.1597C7.19999 16.7783 7.69247 17.2797 8.29999 17.2797Z" fill="#FF955D"/>
<path d="M23.5 10C23.5 10.89 23.2361 11.76 22.7416 12.5001C22.2471 13.2401 21.5443 13.8169 20.7221 14.1575C19.8998 14.4981 18.995 14.5872 18.1221 14.4135C17.2492 14.2399 16.4474 13.8113 15.818 13.182C15.1887 12.5526 14.7601 11.7508 14.5865 10.8779C14.4128 10.005 14.5019 9.10019 14.8425 8.27792C15.1831 7.45566 15.7599 6.75285 16.4999 6.25839C17.24 5.76392 18.11 5.5 19 5.5C20.26 5.5 21.465 6 22.37 6.87L23.5 8M23.5 8L23.5 5.5M23.5 8H21" stroke="white" stroke-linecap="round" stroke-linejoin="round"/>
</g>
<defs>
<clipPath id="clip0_1251_1806">
<rect width="32" height="20" fill="white"/>
</clipPath>
</defs>
</svg>
