<svg width="32" height="20" viewBox="0 0 32 20" fill="none" xmlns="http://www.w3.org/2000/svg">
<g clip-path="url(#clip0_1251_1807)">
<path fill-rule="evenodd" clip-rule="evenodd" d="M0 2C0 0.895431 0.895431 0 2 0H30C31.1046 0 32 0.895431 32 2V6.42197C30.2 6.62095 28.8 8.14698 28.8 10C28.8 11.853 30.2 13.3791 32 13.578V18C32 19.1046 31.1046 20 30 20H2C0.895431 20 0 19.1046 0 18V13.578C1.79998 13.3791 3.2 11.853 3.2 10C3.2 8.14698 1.79998 6.62095 0 6.42197V2ZM9.40001 2.72C9.40001 3.33856 8.90753 3.84 8.30001 3.84C7.6925 3.84 7.20001 3.33856 7.20001 2.72C7.20001 2.10144 7.6925 1.6 8.30001 1.6C8.90753 1.6 9.40001 2.10144 9.40001 2.72ZM8.29999 8.31998C8.9075 8.31998 9.39999 7.81854 9.39999 7.19998C9.39999 6.58142 8.9075 6.07998 8.29999 6.07998C7.69247 6.07998 7.19999 6.58142 7.19999 7.19998C7.19999 7.81854 7.69247 8.31998 8.29999 8.31998ZM9.39999 11.6801C9.39999 12.2986 8.9075 12.8001 8.29999 12.8001C7.69247 12.8001 7.19999 12.2986 7.19999 11.6801C7.19999 11.0615 7.69247 10.5601 8.29999 10.5601C8.9075 10.5601 9.39999 11.0615 9.39999 11.6801ZM8.29999 17.2797C8.9075 17.2797 9.39999 16.7783 9.39999 16.1597C9.39999 15.5412 8.9075 15.0397 8.29999 15.0397C7.69247 15.0397 7.19999 15.5412 7.19999 16.1597C7.19999 16.7783 7.69247 17.2797 8.29999 17.2797Z" fill="#FF7F56"/>
<path d="M19 8V14.5M19 8C18.8191 7.2547 18.5077 6.61751 18.1064 6.17155C17.705 5.7256 17.2323 5.49157 16.75 5.49997C16.4185 5.49997 16.1005 5.63167 15.8661 5.86609C15.6317 6.10051 15.5 6.41845 15.5 6.74997C15.5 7.0815 15.6317 7.39944 15.8661 7.63386C16.1005 7.86828 16.4185 7.99997 16.75 7.99997M19 8C19.1809 7.2547 19.4923 6.61751 19.8936 6.17155C20.295 5.7256 20.7677 5.49157 21.25 5.49997C21.5815 5.49997 21.8995 5.63167 22.1339 5.86609C22.3683 6.10051 22.5 6.41845 22.5 6.74997C22.5 7.0815 22.3683 7.39944 22.1339 7.63386C21.8995 7.86828 21.5815 7.99997 21.25 7.99997M22.5 10V13.5C22.5 13.7652 22.3946 14.0196 22.2071 14.2071C22.0196 14.3946 21.7652 14.5 21.5 14.5H16.5C16.2348 14.5 15.9804 14.3946 15.7929 14.2071C15.6054 14.0196 15.5 13.7652 15.5 13.5V10M15 8H23C23.2761 8 23.5 8.22386 23.5 8.5V9.5C23.5 9.77614 23.2761 10 23 10H15C14.7239 10 14.5 9.77614 14.5 9.5V8.5C14.5 8.22386 14.7239 8 15 8Z" stroke="white" stroke-linecap="round" stroke-linejoin="round"/>
</g>
<defs>
<clipPath id="clip0_1251_1807">
<rect width="32" height="20" fill="white"/>
</clipPath>
</defs>
</svg>
