<svg width="32" height="24" viewBox="0 0 32 24" fill="none" xmlns="http://www.w3.org/2000/svg">
<g clip-path="url(#clip0_1261_1858)">
<path fill-rule="evenodd" clip-rule="evenodd" d="M0 2C0 0.89543 0.895431 0 2 0H30C31.1046 0 32 0.895431 32 2V7.70637C30.2 7.94514 28.8 9.77637 28.8 12C28.8 14.2236 30.2 16.0549 32 16.2936V22C32 23.1046 31.1046 24 30 24H2C0.895431 24 0 23.1046 0 22V16.2936C1.79998 16.0549 3.2 14.2236 3.2 12C3.2 9.77637 1.79998 7.94514 0 7.70637V2Z" fill="#993603"/>
<path d="M16 8.44488V20.0004M16 8.44488C15.6785 7.1199 15.1248 5.98711 14.4113 5.19431C13.6978 4.40151 12.8575 3.98545 12 4.00039C11.4106 4.00039 10.8454 4.23451 10.4287 4.65126C10.0119 5.06801 9.77778 5.63324 9.77778 6.22261C9.77778 6.81198 10.0119 7.37721 10.4287 7.79396C10.8454 8.21071 11.4106 8.44483 12 8.44483M16 8.44488C16.3215 7.1199 16.8752 5.98711 17.5887 5.19431C18.3022 4.40151 19.1425 3.98545 20 4.00039C20.5894 4.00039 21.1546 4.23451 21.5713 4.65126C21.9881 5.06801 22.2222 5.63324 22.2222 6.22261C22.2222 6.81198 21.9881 7.37721 21.5713 7.79396C21.1546 8.21071 20.5894 8.44483 20 8.44483M22.2222 12.0004V18.2227C22.2222 18.6942 22.0349 19.1463 21.7015 19.4797C21.3681 19.8131 20.9159 20.0004 20.4444 20.0004H11.5556C11.0841 20.0004 10.6319 19.8131 10.2985 19.4797C9.96508 19.1463 9.77778 18.6942 9.77778 18.2227V12.0004M8.88889 8.44488H23.1111C23.602 8.44488 24 8.84285 24 9.33377V11.1115C24 11.6025 23.602 12.0004 23.1111 12.0004H8.88889C8.39797 12.0004 8 11.6025 8 11.1115V9.33377C8 8.84285 8.39797 8.44488 8.88889 8.44488Z" stroke="white" stroke-width="2" stroke-linecap="round" stroke-linejoin="round"/>
</g>
<defs>
<clipPath id="clip0_1261_1858">
<rect width="32" height="24" fill="white"/>
</clipPath>
</defs>
</svg>
